<svg xmlns="http://www.w3.org/2000/svg" viewBox="0 0 800 450" width="100%" height="100%">
  <rect width="100%" height="100%" fill="#ffffff"/>
  <text x="400" y="35" text-anchor="middle" font-family="sans-serif" font-size="20" font-weight="bold" fill="#1e293b">Argus DML Write Latency vs Dataset Scale (P50 &amp; P99)</text>
  <text x="400" y="55" text-anchor="middle" font-family="sans-serif" font-size="12" fill="#64748b">Marginal trigger overhead amortizes to O(1) across database scale</text>

  <!-- Axes -->
  <line x1="80" y1="360" x2="740" y2="360" stroke="#94a3b8" stroke-width="1.5"/>
  <line x1="80" y1="80" x2="80" y2="360" stroke="#94a3b8" stroke-width="1.5"/>

  <!-- Y-Axis Ticks (0 to 5 ms) -->
  <text x="70" y="365" text-anchor="end" font-family="sans-serif" font-size="11" fill="#64748b">0 ms</text>
  <line x1="75" y1="360" x2="740" y2="360" stroke="#f1f5f9" stroke-width="1"/>

  <text x="70" y="309" text-anchor="end" font-family="sans-serif" font-size="11" fill="#64748b">1 ms</text>
  <line x1="75" y1="304" x2="740" y2="304" stroke="#f1f5f9" stroke-width="1"/>

  <text x="70" y="253" text-anchor="end" font-family="sans-serif" font-size="11" fill="#64748b">2 ms</text>
  <line x1="75" y1="248" x2="740" y2="248" stroke="#f1f5f9" stroke-width="1"/>

  <text x="70" y="197" text-anchor="end" font-family="sans-serif" font-size="11" fill="#64748b">3 ms</text>
  <line x1="75" y1="192" x2="740" y2="192" stroke="#f1f5f9" stroke-width="1"/>

  <text x="70" y="141" text-anchor="end" font-family="sans-serif" font-size="11" fill="#64748b">4 ms</text>
  <line x1="75" y1="136" x2="740" y2="136" stroke="#f1f5f9" stroke-width="1"/>

  <text x="70" y="85" text-anchor="end" font-family="sans-serif" font-size="11" fill="#64748b">5 ms</text>
  <line x1="75" y1="80" x2="740" y2="80" stroke="#f1f5f9" stroke-width="1"/>

  <!-- X-Axis Ticks: 100 (x=160), 1K (x=340), 10K (x=520), 100K (x=700) -->
  <text x="160" y="380" text-anchor="middle" font-family="sans-serif" font-size="12" fill="#334155" font-weight="bold">100 rows</text>
  <text x="340" y="380" text-anchor="middle" font-family="sans-serif" font-size="12" fill="#334155" font-weight="bold">1,000 rows</text>
  <text x="520" y="380" text-anchor="middle" font-family="sans-serif" font-size="12" fill="#334155" font-weight="bold">10,000 rows</text>
  <text x="700" y="380" text-anchor="middle" font-family="sans-serif" font-size="12" fill="#334155" font-weight="bold">100,000 rows</text>

  <!-- INSERT P50 Line (Blue) -->
  <polyline fill="none" stroke="#2563eb" stroke-width="2.5"
    points="160,324 340,322 520,319 700,315" />
  <!-- INSERT P99 Line (Dashed Blue) -->
  <polyline fill="none" stroke="#2563eb" stroke-width="2" stroke-dasharray="5,5"
    points="160,256 340,242 520,212 700,181" />

  <!-- UPDATE P50 Line (Green) -->
  <polyline fill="none" stroke="#059669" stroke-width="2.5"
    points="160,320 340,318 520,315 700,311" />
  <!-- UPDATE P99 Line (Dashed Green) -->
  <polyline fill="none" stroke="#059669" stroke-width="2" stroke-dasharray="5,5"
    points="160,247 340,226 520,195 700,156" />

  <!-- DELETE P50 Line (Red) -->
  <polyline fill="none" stroke="#dc2626" stroke-width="2.5"
    points="160,316 340,314 520,311 700,306" />
  <!-- DELETE P99 Line (Dashed Red) -->
  <polyline fill="none" stroke="#dc2626" stroke-width="2" stroke-dasharray="5,5"
    points="160,231 340,206 520,181 700,130" />

  <!-- Legend -->
  <rect x="180" y="405" width="440" height="35" rx="4" fill="#f8fafc" stroke="#e2e8f0"/>
  <line x1="200" y1="422" x2="225" y2="422" stroke="#2563eb" stroke-width="3"/>
  <text x="235" y="426" font-family="sans-serif" font-size="11" fill="#1e293b">INSERT P50</text>
  <line x1="310" y1="422" x2="335" y2="422" stroke="#059669" stroke-width="3"/>
  <text x="345" y="426" font-family="sans-serif" font-size="11" fill="#1e293b">UPDATE P50</text>
  <line x1="420" y1="422" x2="445" y2="422" stroke="#dc2626" stroke-width="3"/>
  <text x="455" y="426" font-family="sans-serif" font-size="11" fill="#1e293b">DELETE P50</text>
  <line x1="530" y1="422" x2="555" y2="422" stroke="#64748b" stroke-width="2" stroke-dasharray="4,4"/>
  <text x="565" y="426" font-family="sans-serif" font-size="11" fill="#1e293b">P99 Tail</text>
</svg>